<?xml version="1.0" encoding="UTF-8" standalone="no"?>
<!DOCTYPE svg PUBLIC "-//W3C//DTD SVG 1.1//EN" "http://www.w3.org/Graphics/SVG/1.1/DTD/svg11.dtd">
<svg width="100%" height="100%" viewBox="0 0 500 500" version="1.1" xmlns="http://www.w3.org/2000/svg" xmlns:xlink="http://www.w3.org/1999/xlink" xml:space="preserve" xmlns:serif="http://www.serif.com/" style="fill-rule:evenodd;clip-rule:evenodd;stroke-linejoin:round;stroke-miterlimit:2;">
    <g transform="matrix(1.1612,0,0,1.1708,-65.5738,-76.2167)">
        <path d="M487.059,107.804C487.059,84.234 467.765,65.098 444,65.098L99.529,65.098C75.765,65.098 56.471,84.234 56.471,107.804L56.471,449.451C56.471,473.021 75.765,492.157 99.529,492.157L444,492.157C467.765,492.157 487.059,473.021 487.059,449.451L487.059,107.804Z" style="fill:white;"/>
    </g>
    <g transform="matrix(2.86517,0,0,2.98595,-503.371,-657.944)">
        <path d="M186.506,360.939L201.165,360.939L201.165,247.206L186.506,247.206L186.506,233.944L249.748,233.944L249.748,247.206L235.089,247.206L235.089,294.829L290.793,294.829L290.793,247.206L276.134,247.206L276.134,233.944L339.376,233.944L339.376,247.206L324.718,247.206L324.718,360.939L339.376,360.939L339.376,374.201L276.134,374.201L276.134,360.939L290.793,360.939L290.793,309.297L235.089,309.297L235.089,360.939L249.748,360.939L249.748,374.201L186.506,374.201L186.506,360.939Z" style="fill:rgb(235,0,82);fill-rule:nonzero;"/>
    </g>
</svg>
